<svg xmlns="http://www.w3.org/2000/svg" width="320" height="320" viewBox="0 0 320 320" role="img" aria-labelledby="title desc">
  <title id="title">Umma League Logo</title>
  <desc id="desc">Unique geometric monogram with orbit ring and football accent.</desc>
  <defs>
    <linearGradient id="frame" x1="0" x2="1" y1="0" y2="1">
      <stop offset="0%" stop-color="#24103f"/>
      <stop offset="100%" stop-color="#6b2fc1"/>
    </linearGradient>
    <linearGradient id="accent" x1="0" x2="1" y1="0" y2="0">
      <stop offset="0%" stop-color="#ffd166"/>
      <stop offset="100%" stop-color="#f5b100"/>
    </linearGradient>
  </defs>

  <rect x="20" y="20" width="280" height="280" rx="56" fill="url(#frame)"/>

  <circle cx="160" cy="160" r="86" fill="none" stroke="url(#accent)" stroke-width="12"/>
  <path d="M86 193c20 33 50 50 74 50 34 0 63-20 82-57" fill="none" stroke="#ffffff" stroke-width="8" stroke-linecap="round" opacity="0.9"/>

  <path d="M104 108v88c0 22 14 36 39 36h18v-24h-15c-11 0-16-5-16-15v-85z" fill="#ffffff"/>
  <rect x="170" y="108" width="22" height="124" rx="10" fill="#ffffff"/>
  <path d="M207 108h10c15 0 27 12 27 27v70c0 15-12 27-27 27h-10v-24h8c5 0 8-3 8-8v-60c0-5-3-8-8-8h-8z" fill="#ffffff"/>

  <circle cx="232" cy="98" r="18" fill="url(#accent)"/>
  <path d="M232 85l5 4-2 6h-6l-2-6zM220 95h6l2 6-5 4-6-4zM244 95h-6l-2 6 5 4 6-4zM225 108l7-5 7 5-3 7h-8z" fill="#24103f"/>
</svg>
