<svg xmlns="http://www.w3.org/2000/svg" width="320" height="320" viewBox="0 0 320 320" role="img" aria-labelledby="title desc">
  <title id="title">Umma League Logo</title>
  <desc id="desc">Shield logo with football and crescent in gold and purple.</desc>
  <defs>
    <linearGradient id="bg" x1="0" x2="1" y1="0" y2="1">
      <stop offset="0%" stop-color="#2b0b4a"/>
      <stop offset="100%" stop-color="#5e2ca5"/>
    </linearGradient>
  </defs>
  <rect x="20" y="20" width="280" height="280" rx="64" fill="url(#bg)"/>
  <path d="M160 58c46 0 84 38 84 84 0 59-47 110-84 126-37-16-84-67-84-126 0-46 38-84 84-84z" fill="#1c0631" opacity="0.5"/>
  <circle cx="160" cy="150" r="48" fill="#f5c542"/>
  <path d="M160 112l14 10-5 16h-18l-5-16z" fill="#2b0b4a"/>
  <path d="M132 138h18l6 18-14 11-16-12z" fill="#2b0b4a"/>
  <path d="M188 138h-18l-6 18 14 11 16-12z" fill="#2b0b4a"/>
  <path d="M143 176l17-12 17 12-7 18h-20z" fill="#2b0b4a"/>
  <path d="M210 104a38 38 0 1 1 0 76 32 32 0 1 0 0-76z" fill="#f5c542"/>
  <rect x="96" y="228" width="128" height="20" rx="10" fill="#f5c542"/>
</svg>
